<svg id="visual" viewBox="0 0 900 600" width="900" height="600" xmlns="http://www.w3.org/2000/svg" xmlns:xlink="http://www.w3.org/1999/xlink" version="1.1"><path d="M0 286L30 307.5C60 329 120 372 180 387.8C240 403.7 300 392.3 360 375.5C420 358.7 480 336.3 540 335.5C600 334.7 660 355.3 720 372.8C780 390.3 840 404.7 870 411.8L900 419L900 601L870 601C840 601 780 601 720 601C660 601 600 601 540 601C480 601 420 601 360 601C300 601 240 601 180 601C120 601 60 601 30 601L0 601Z" fill="#1ea6a3" stroke-linecap="round" stroke-linejoin="miter"></path></svg>